<svg xmlns="http://www.w3.org/2000/svg" width="29.103" height="25" viewBox="0 0 29.103 25"><path d="M15.551,2.1l-2.739,2.46a6.292,6.292,0,0,1,.956.858c.026.026.047.062.072.088A6.516,6.516,0,0,1,14.6,6.52l.005-.005c.041.078.1.145.145.227A6.616,6.616,0,0,1,18.2,12.55a6.912,6.912,0,0,1-.1,1.188,6.614,6.614,0,0,1-5.188,10.717V27.1H26.134V15.2H30.1ZM8.937,5.936a3.977,3.977,0,0,0-3.8,2.816,3.968,3.968,0,0,0-2.3,5.746A3.967,3.967,0,0,0,4.969,21.81H7.614V27.1H10.26V21.81h2.646A3.967,3.967,0,0,0,15.04,14.5a3.968,3.968,0,0,0-2.3-5.746A3.977,3.977,0,0,0,8.937,5.936Z" transform="translate(-1 -2.102)" fill="#edf2f7"/></svg>